<?xml version="1.0" encoding="iso-8859-1"?>
<!-- Uploaded to: SVG Repo, www.svgrepo.com, Generator: SVG Repo Mixer Tools -->
<svg fill="#000000" height="800px" width="800px" version="1.1" id="Layer_1" xmlns="http://www.w3.org/2000/svg" xmlns:xlink="http://www.w3.org/1999/xlink" 
	 viewBox="0 0 511.956 511.956" xml:space="preserve">
<g transform="translate(0 -1)">
	<g>
		<g>
			<path d="M207.381,110.728c-1.543-2.603-5.296-8.515-5.523-8.933C156.993,19.306,28.235,25.152,3.264,115.696
				c-0.326,1.18-0.326,1.18-0.341,1.234c-4.502,17.488-3.556,69.738,1.149,86.834c3.781,13.887,8.375,25.476,15.433,36.303
				c27.547,42.227,77.676,53.672,107.045,15.315c0.325-0.406,0.793-0.957,1.372-1.607l-0.006,195.23
				c0,11.782,9.551,21.333,21.333,21.333h64.043c11.782,0,21.333-9.551,21.333-21.333V240.814c0-47.538-6.247-82.94-17.216-109.858
				C214.328,123.396,211.062,116.936,207.381,110.728z M191.957,427.672h-21.376V254.19c0.999-41.547-20.405-64.201-50.977-48.296
				c-5.221,2.716-10.161,6.415-15.045,10.886c-5.006,4.584-9.017,9.061-11.625,12.33c-8.86,11.565-24.407,8.015-37.69-12.347
				c-4.201-6.445-7.289-14.234-10.02-24.264c-2.783-10.111-3.592-54.811-1.158-64.289c0.228-0.814,0.228-0.814,0.244-0.868
				c14.327-51.938,92.69-55.496,120.075-5.146c1.052,1.931,5.403,8.787,6.296,10.293c2.65,4.47,4.972,9.062,7.215,14.567
				c8.773,21.531,14.061,51.496,14.061,93.758V427.672z"/>
			<path d="M509.167,117.568c-0.399-1.459-0.399-1.459-0.602-2.173c-24.886-90.243-153.644-96.089-198.517-13.585
				c-0.22,0.403-3.972,6.315-5.515,8.918c-3.68,6.207-6.947,12.668-10.027,20.227c-10.969,26.918-17.216,62.32-17.216,109.858
				v208.192c0,11.782,9.551,21.333,21.333,21.333h64.043c11.782,0,21.333-9.551,21.333-21.333V254.19
				c0.649,0.338,1.203,0.996,1.627,1.528c29.107,38.022,79.236,26.577,106.779-15.643c7.062-10.835,11.656-22.423,15.452-36.366
				C512.556,186.64,513.512,134.382,509.167,117.568z M466.706,192.444c-2.746,10.085-5.834,17.874-10.039,24.326
				c-13.279,20.355-28.826,23.904-37.424,12.674c-2.869-3.604-6.88-8.081-11.887-12.664c-4.884-4.472-9.824-8.17-15.045-10.886
				c-30.572-15.905-51.977,6.749-50.971,48.806l-0.005,172.973h-21.377V240.814c0-42.261,5.288-72.227,14.061-93.758
				c2.243-5.505,4.565-10.097,7.215-14.567c0.893-1.507,5.244-8.362,6.289-10.279c27.393-50.365,105.757-46.807,119.998,4.83
				c0.309,1.124,0.309,1.124,0.512,1.838C470.296,137.681,469.479,182.367,466.706,192.444z"/>
		</g>
	</g>
</g>
</svg>